<?xml version="1.0" encoding="UTF-8" standalone="no"?>
<!-- Created with Inkscape (http://www.inkscape.org/) -->
<svg
   xmlns:dc="http://purl.org/dc/elements/1.1/"
   xmlns:cc="http://creativecommons.org/ns#"
   xmlns:rdf="http://www.w3.org/1999/02/22-rdf-syntax-ns#"
   xmlns:svg="http://www.w3.org/2000/svg"
   xmlns="http://www.w3.org/2000/svg"
   xmlns:sodipodi="http://sodipodi.sourceforge.net/DTD/sodipodi-0.dtd"
   xmlns:inkscape="http://www.inkscape.org/namespaces/inkscape"
   width="150"
   height="110"
   id="svg2"
   sodipodi:version="0.32"
   inkscape:version="0.46"
   version="1.0"
   sodipodi:docname="ENWP VP Logo.svg"
   inkscape:output_extension="org.inkscape.output.svg.inkscape">
  <defs
     id="defs4">
    <inkscape:perspective
       sodipodi:type="inkscape:persp3d"
       inkscape:vp_x="0 : 526.18109 : 1"
       inkscape:vp_y="0 : 1000 : 0"
       inkscape:vp_z="744.09448 : 526.18109 : 1"
       inkscape:persp3d-origin="372.04724 : 350.78739 : 1"
       id="perspective10" />
    <inkscape:perspective
       id="perspective2396"
       inkscape:persp3d-origin="73.782997 : 36.995333 : 1"
       inkscape:vp_z="147.56599 : 55.493 : 1"
       inkscape:vp_y="0 : 1000 : 0"
       inkscape:vp_x="0 : 55.493 : 1"
       sodipodi:type="inkscape:persp3d" />
  </defs>
  <sodipodi:namedview
     id="base"
     pagecolor="#ffffff"
     bordercolor="#666666"
     borderopacity="1.0"
     gridtolerance="10000"
     guidetolerance="10"
     objecttolerance="10"
     inkscape:pageopacity="0.0"
     inkscape:pageshadow="2"
     inkscape:zoom="1"
     inkscape:cx="-90.091864"
     inkscape:cy="67.484758"
     inkscape:document-units="px"
     inkscape:current-layer="layer1"
     showgrid="false"
     inkscape:window-width="1600"
     inkscape:window-height="1153"
     inkscape:window-x="1596"
     inkscape:window-y="-4" />
  <metadata
     id="metadata7">
    <rdf:RDF>
      <cc:Work
         rdf:about="">
        <dc:format>image/svg+xml</dc:format>
        <dc:type
           rdf:resource="http://purl.org/dc/dcmitype/StillImage" />
      </cc:Work>
    </rdf:RDF>
  </metadata>
  <g
     inkscape:label="Layer 1"
     inkscape:groupmode="layer"
     id="layer1"
     transform="translate(-518.75729,-469.75186)">
    <g
       id="g5"
       transform="translate(519.98284,467.80241)">
	
	<g
   id="g9">
		<path
   id="path11"
   d="M 34.595,101.867 C 33.301,99.836 34.072,96.385 32.123,94.748 C 31.281,95.765 31.831,97.133 31.662,98.357 C 31.409,100.197 30.703,100.937 29.29,101.968 C 29.989,99.733 27.836,97.472 28.303,95.204 C 28.642,93.561 30.106,92.439 30.683,90.946 C 31.07,89.946 31.421,87.07 29.394,87.612 C 27.931,88.003 26.219,92.214 25.653,93.534 C 24.908,89.911 24.824,86.897 27.201,84.11 C 28.614,82.454 30.451,80.88 30.159,78.452 C 28.967,78.607 28.706,79.665 27.984,80.536 C 27.002,81.719 25.655,81.773 24.783,82.87 C 25.799,82.032 24.905,80.136 25.096,78.841 C 25.324,77.289 26.236,75.784 27.331,74.689 C 29.408,72.611 30.507,71.834 30.182,68.747 C 28.132,68.877 27.877,73.834 25.274,72.625 C 26.343,71.893 25.83,70.35 25.901,69.128 C 25.997,67.503 26.553,66.174 27.8,65.03 C 28.575,64.318 29.892,64.024 30.534,63.325 C 31.301,62.487 31.155,61.281 31.721,60.359 C 29.752,59.852 27.579,61.297 26.454,62.785 C 25.933,59.734 28.581,57.246 31.073,55.949 C 33.511,54.679 33.231,53.403 34.671,51.375 C 34.532,52.114 34.407,52.781 33.98,53.383 C 32.459,52.774 31.031,54.108 30.337,55.203 C 26.569,51.621 37.974,47.87 38.451,45.336 C 37.259,44.883 34.837,45.931 34.345,47.031 C 34.173,40.563 42.153,42.753 44.521,38.708 C 42.633,38.221 41.079,40.827 38.736,39.736 C 40.563,39.857 41.231,38.107 42.269,37.063 C 43.643,35.681 45.735,34.378 47.802,34.094 C 50.561,33.716 52.138,33.244 54.734,32.296 C 52.963,32.099 49.884,30.961 48.257,31.466 C 50.844,29.057 52.926,29.14 56.458,29.248 C 59.359,29.333 61.3,28.054 64.062,27.856 C 62.931,26.991 61.798,27.259 60.526,26.853 C 59.408,26.497 58.714,25.875 57.681,25.507 C 59.152,26.417 60.093,25.027 61.369,24.557 C 63.011,23.952 64.207,24.106 65.86,24.69 C 67.042,25.107 68.055,26.107 69.309,26.125 C 70.583,26.141 71.955,25.242 73.249,25.098 C 70.811,24.032 68.163,24.189 66.372,21.941 C 68.196,22.627 69.51,22.217 71.309,21.966 C 73.299,21.687 74.663,21.935 76.547,22.536 C 78.783,23.246 81.406,25.121 83.66,23.963 C 82.67,23.588 81.39,23.352 80.295,22.984 C 78.801,22.483 77.506,21.424 75.998,21.079 C 78.146,22.012 80.9,20.373 83.288,21.2 C 85.106,21.83 87.558,22.979 89.123,24.055 C 87.915,22.767 86.261,21.91 84.821,20.863 C 88.64,20.866 91.75,24.084 95.242,25.145 C 95.292,24.005 93.457,23.073 92.67,22.182 C 96.853,23.403 100.361,25.592 104.283,27.063 C 107.104,28.122 110.037,28.785 112.768,30.127 C 113.547,30.511 113.883,31.404 113.517,32.123 C 113.152,32.842 112.22,33.115 111.44,32.733 C 109.351,31.713 106.127,30.005 103.852,29.927 C 103.142,29.902 97.229,32.13 97.267,32.506 C 97.136,31.224 97.328,29.871 97.961,28.783 C 95.593,26.94 92.52,33.174 90.065,33.113 C 89.891,30.508 91.434,28.971 93.006,27.307 C 90.644,26.925 88.819,26.838 87.768,28.654 C 87.157,29.709 87.132,31.009 86.039,32.148 C 84.925,33.31 83.459,33.973 82.215,34.983 C 81.93,32.039 79.674,28.827 83.115,26.754 C 79.911,26.529 79.292,28.326 78.928,30.987 C 78.683,32.802 79.096,34.53 77.603,35.939 C 76.719,36.776 74.465,37.976 73.596,36.685 C 74.33,34.985 75.148,33.704 74.159,31.675 C 73.509,30.341 71.629,28.609 74.406,27.906 C 73.318,27.902 71.182,28.404 70.49,29.23 C 69.477,30.439 70.316,30.906 70.707,32.106 C 71.881,35.695 69.94,39.751 65.607,39.856 C 66.458,38.238 67.04,35.714 65.835,34.029 C 64.453,32.099 62.999,32.442 65.236,30.103 C 61.731,31.307 58.59,33.452 61.595,36.918 C 63.833,39.498 63.815,42.066 60.503,43.872 C 62.805,41.132 59.162,40.909 57.539,40.156 C 54.846,38.907 54.59,36.209 56.468,34.528 C 54.125,35.196 51.616,38.317 52.936,40.788 C 53.747,42.309 55.739,42.105 56.249,43.659 C 56.985,45.895 54.107,48.73 52.027,49.046 C 53.06,45.947 48.91,45.098 48.17,42.79 C 47.731,41.42 48.567,39.22 49.226,38.102 C 48.142,38.716 46.336,40.414 45.977,41.845 C 45.24,44.774 47.598,47.309 48.751,49.72 C 49.513,51.314 48.675,53.741 47.576,54.91 C 47.549,52.899 45.385,52.331 44.187,51.054 C 42.639,49.401 40.723,45.284 42.743,43.569 C 40.469,44.617 39.447,47.705 40.364,49.854 C 40.918,51.152 42.023,51.912 43.03,52.867 C 44.277,54.052 44.886,55.265 45.301,56.846 C 45.509,57.636 45.888,58.188 45.677,59.016 C 45.573,59.427 44.187,60.769 44.197,60.825 C 43.823,58.735 41.394,58.01 39.937,56.706 C 38.927,55.804 36.469,52.936 37.084,51.542 C 35.444,55.261 38.296,57.718 40.784,60.294 C 41.784,61.327 42.888,62.273 43.466,63.59 C 44.075,64.973 43.327,66.569 43.791,67.754 C 42.74,65.065 37.812,64.47 35.644,62.958 C 34.628,62.25 34.181,61.41 33.523,60.592 C 33.819,60.962 33.371,63.037 33.85,63.845 C 34.47,64.891 36.173,66.336 37.319,66.788 C 39.015,67.459 40.639,67.388 41.821,68.957 C 42.766,70.213 43.789,73.699 42.953,74.94 C 42.022,72.598 39.819,71.492 37.349,71.639 C 35.371,71.76 32.925,72.354 32.127,69.701 C 32.002,69.731 31.877,69.757 31.749,69.782 C 30.583,69.991 32.549,74.011 33.108,74.419 C 34.854,75.681 37.301,74.755 39.178,75.485 C 42.801,76.892 42.542,80.512 42.333,83.651 C 42.45,81.889 38.084,80.571 36.905,80.276 C 35.13,79.829 32.984,79.352 32.282,77.391 C 32.049,78.85 32.503,81.483 33.92,82.459 C 35.332,83.43 37.197,82.574 38.695,83.213 C 41.669,84.484 42.993,89.166 42.139,91.787 C 41.035,89.537 39.861,88.753 37.424,88.152 C 35.417,87.656 34.777,87.525 33.698,85.75 C 33.686,89.073 35.639,90.386 38.362,91.566 C 40.97,92.697 44.302,96.656 41.813,99.261 C 40.599,96.427 36.872,96.142 35.615,93.635 C 35.917,97.946 42.963,103.847 40.026,108.06 C 39.324,105.45 36.054,104.162 34.595,101.867 z"
   style="fill:#1fb512;stroke:#e8bd0a;stroke-width:0.50590003" />

	</g>

	<g
   id="g13">
		<path
   id="path15"
   d="M 29.893,77.559 C 29.142,61.724 33.618,48.865 42.839,40.371 C 49.983,33.791 58.077,29.157 66.901,26.596 C 73.964,24.546 81.498,23.815 89.296,24.426 C 95.133,24.884 102.066,25.78 107.512,28.251 C 113.24,30.849 118.107,32.354 124.543,31.884 C 127.204,31.692 129.749,30.647 132.248,30.45 C 134.665,30.26 137.965,31.216 140.562,31.413 C 139.164,33.342 133.987,34.053 131.581,34.424 C 128.575,34.891 125.772,35.165 122.717,35.125 C 119.254,35.079 115.11,34.319 111.738,33.307 C 109.091,32.511 106.701,31.018 104.04,30.203 C 99.163,28.713 94.123,27.745 89.068,27.359 C 81.684,26.794 74.556,27.496 67.88,29.443 C 59.537,31.877 51.866,36.283 45.078,42.535 C 34.228,52.53 32.526,67.064 33.012,77.499 C 33.544,88.949 36.619,99.816 35.802,100.039 C 34.983,100.262 30.457,89.414 29.893,77.559 z"
   style="fill:#1b960e;stroke:#f9cb0d;stroke-width:0.2529" />

	</g>

	<g
   id="g17">
		<path
   id="path19"
   d="M 12.354,73.947 C 11.881,71.388 13.837,68.226 12.614,65.804 C 11.467,66.493 11.486,68.085 10.889,69.251 C 9.993,71.001 9.072,71.464 7.386,71.938 C 8.84,69.968 7.65,66.838 8.899,64.746 C 9.805,63.23 11.568,62.683 12.64,61.411 C 13.359,60.557 14.719,57.807 12.642,57.545 C 11.141,57.356 8.037,60.91 7.037,62.011 C 7.646,58.073 8.65,55.008 11.861,53.153 C 13.77,52.049 16.04,51.196 16.643,48.637 C 15.479,48.321 14.857,49.282 13.872,49.87 C 12.533,50.67 11.264,50.186 10.059,50.941 C 11.304,50.503 11.156,48.242 11.797,47.015 C 12.567,45.545 13.955,44.396 15.366,43.729 C 18.044,42.466 19.345,42.122 20.151,38.888 C 18.198,38.202 16.18,43.084 14.195,40.835 C 15.452,40.524 15.531,38.767 16.035,37.57 C 16.708,35.971 17.702,34.858 19.273,34.203 C 20.25,33.798 21.578,34.022 22.425,33.575 C 23.44,33.04 23.738,31.769 24.593,31.067 C 22.947,29.773 20.409,30.36 18.828,31.41 C 19.439,28.136 22.794,26.687 25.577,26.374 C 28.299,26.066 28.497,24.672 30.564,23.205 C 30.169,23.892 29.813,24.513 29.2,24.95 C 28.004,23.732 26.198,24.505 25.16,25.331 C 22.946,20.229 34.893,20.996 36.248,18.639 C 35.303,17.706 32.675,17.796 31.821,18.708 C 33.984,12.137 40.616,17.511 44.268,14.386 C 42.688,13.146 40.307,15.147 38.52,13.119 C 40.177,13.967 41.426,12.472 42.766,11.836 C 44.538,10.993 46.953,10.516 48.974,11.051 C 51.676,11.766 53.312,11.922 56.064,12 C 54.488,11.098 52.035,8.728 50.344,8.589 C 53.612,7.196 55.519,8.107 58.762,9.619 C 61.428,10.861 63.692,10.345 66.329,11.245 C 65.588,9.924 64.439,9.745 63.402,8.83 C 62.491,8.026 62.069,7.124 61.242,6.344 C 62.283,7.844 63.656,6.822 65.012,6.855 C 66.756,6.9 67.812,7.532 69.139,8.775 C 70.087,9.663 70.669,11.073 71.829,11.589 C 73.009,12.111 74.604,11.754 75.86,12.123 C 73.975,10.081 71.46,9.186 70.602,6.212 C 72.052,7.629 73.417,7.74 75.18,8.202 C 77.129,8.714 78.31,9.506 79.845,10.859 C 81.667,12.463 83.433,15.39 85.944,15.121 C 85.16,14.351 84.054,13.605 83.169,12.798 C 81.96,11.7 81.137,10.121 79.858,9.173 C 81.52,10.965 84.669,10.413 86.59,12.194 C 88.054,13.549 89.918,15.681 90.988,17.384 C 90.327,15.612 89.098,14.09 88.135,12.465 C 91.685,13.987 93.417,18.459 96.281,20.915 C 96.74,19.79 95.369,18.121 94.956,16.912 C 98.406,19.806 100.879,23.401 103.998,26.439 C 106.239,28.626 108.726,30.458 110.783,32.895 C 111.37,33.591 111.36,34.621 110.762,35.198 C 110.161,35.775 109.2,35.681 108.612,34.987 C 107.038,33.131 104.657,30.132 102.567,29.146 C 101.917,28.839 95.621,28.729 95.521,29.121 C 95.861,27.781 96.524,26.497 97.504,25.655 C 95.965,22.859 90.868,27.907 88.611,26.868 C 89.384,24.18 91.37,23.248 93.429,22.201 C 91.37,20.875 89.705,20.065 88.077,21.472 C 87.128,22.29 86.639,23.586 85.214,24.298 C 83.761,25.023 82.16,25.107 80.64,25.626 C 81.434,22.554 80.492,18.428 84.435,17.71 C 81.538,16.21 80.316,17.771 79.024,20.301 C 78.142,22.029 77.907,23.93 76.012,24.756 C 74.89,25.245 72.364,25.554 72.019,23.91 C 73.315,22.492 74.533,21.53 74.342,19.096 C 74.218,17.497 73.092,15.007 75.927,15.404 C 74.916,14.967 72.75,14.623 71.812,15.178 C 70.434,15.991 71.047,16.794 70.98,18.157 C 70.781,22.232 67.52,25.54 63.456,23.923 C 64.827,22.632 66.276,20.327 65.76,18.153 C 65.169,15.662 63.694,15.429 66.614,13.965 C 62.925,13.783 59.235,14.69 60.784,19.37 C 61.936,22.854 60.996,25.429 57.272,25.927 C 60.393,24.09 57.087,22.416 55.852,21.015 C 53.796,18.686 54.527,15.871 56.875,14.928 C 54.458,14.667 51.005,16.807 51.343,19.819 C 51.552,21.671 53.477,22.258 53.395,24.024 C 53.275,26.565 49.581,28.271 47.535,27.76 C 49.606,25.054 46.057,22.551 46.197,19.933 C 46.281,18.382 47.848,16.504 48.862,15.642 C 47.634,15.829 45.344,16.816 44.497,18.112 C 42.76,20.765 44.041,24.254 44.248,27.134 C 44.384,29.04 42.733,31.146 41.29,31.887 C 41.988,29.854 40.181,28.421 39.528,26.66 C 38.682,24.384 38.38,19.483 40.874,18.56 C 38.384,18.707 36.325,21.408 36.405,23.934 C 36.454,25.459 37.208,26.662 37.8,28.024 C 38.533,29.71 38.663,31.174 38.482,32.926 C 38.391,33.805 38.545,34.509 38.053,35.257 C 37.81,35.629 36.037,36.427 36.027,36.487 C 36.429,34.237 34.433,32.543 33.547,30.652 C 32.934,29.344 31.678,25.484 32.753,24.324 C 29.893,27.412 31.657,31.017 33.047,34.595 C 33.606,36.033 34.289,37.423 34.355,38.976 C 34.424,40.61 33.158,41.917 33.162,43.293 C 33.152,40.171 28.783,37.611 27.313,35.231 C 26.622,34.115 26.508,33.092 26.192,32.008 C 26.334,32.497 25.171,34.406 25.327,35.409 C 25.526,36.706 26.593,38.837 27.493,39.746 C 28.828,41.097 30.365,41.67 30.899,43.719 C 31.326,45.355 31.021,49.269 29.8,50.185 C 29.778,47.46 28.127,45.47 25.776,44.638 C 23.895,43.97 21.409,43.597 21.62,40.61 C 21.493,40.592 21.367,40.568 21.242,40.541 C 20.08,40.29 20.464,45.113 20.84,45.746 C 22.006,47.709 24.615,47.752 26.097,49.232 C 28.958,52.089 27.417,55.625 26.096,58.698 C 26.838,56.972 23.253,53.912 22.263,53.144 C 20.774,51.991 18.952,50.658 19.004,48.406 C 18.263,49.78 17.736,52.609 18.705,54.155 C 19.668,55.691 21.709,55.573 22.871,56.811 C 25.18,59.271 24.727,64.505 22.993,66.802 C 22.774,64.101 21.965,62.846 19.917,61.272 C 18.23,59.976 17.682,59.59 17.316,57.376 C 16.113,60.712 17.456,62.808 19.562,65.077 C 21.58,67.252 23.253,72.559 20.005,74.188 C 19.895,70.855 16.532,69.086 16.266,66.067 C 14.995,70.52 19.425,79.256 15.184,82.326 C 15.462,79.43 12.887,76.832 12.354,73.947 z"
   style="fill:#1fb512;stroke:#e8bd0a;stroke-width:0.52509999" />

	</g>

	<g
   id="g21">
		<path
   id="path23"
   d="M 16.718,47.634 C 21.707,31.414 30.489,20.264 42.111,15.39 C 51.114,11.614 60.301,10.174 69.423,11.108 C 76.725,11.855 83.99,14.117 91.016,17.832 C 98.181,21.62 103.505,26.939 109.67,32.067 C 114.649,36.21 121.194,38.835 127.204,39.496 C 128.051,39.589 129.008,39.285 129.846,39.58 C 132.131,40.388 134.09,42.633 136.601,43.349 C 132.864,45.074 128.184,43.137 124.252,42.386 C 119.836,41.543 116.11,40.187 112.131,37.585 C 108.748,35.375 105.827,32.251 102.736,29.581 C 98.715,26.11 94.344,23.105 89.752,20.688 C 83.094,17.187 76.214,15.055 69.311,14.359 C 60.683,13.489 51.97,14.866 43.416,18.454 C 29.738,24.189 22.937,38.129 19.639,48.812 C 16.02,60.539 14.973,72.689 14.134,72.587 C 13.293,72.486 12.983,59.779 16.718,47.634 z"
   style="fill:#1b960e;stroke:#f9cb0d;stroke-width:0.26249999" />

	</g>

	
	
</g>
    <text
       xml:space="preserve"
       style="font-size:64.2824707px;font-style:normal;font-variant:normal;font-weight:bold;font-stretch:normal;text-align:start;line-height:125%;writing-mode:lr-tb;text-anchor:start;fill:#000000;fill-opacity:1;stroke:none;stroke-width:1px;stroke-linecap:butt;stroke-linejoin:miter;stroke-opacity:1;font-family:Arial;-inkscape-font-specification:Arial Bold"
       x="573.78375"
       y="566.60834"
       id="text3348"
       sodipodi:linespacing="125%"><tspan
         sodipodi:role="line"
         id="tspan3350"
         x="573.78375"
         y="566.60834">VP</tspan><tspan
         sodipodi:role="line"
         x="573.78375"
         y="646.96143"
         id="tspan3352" /></text>
  </g>
</svg>
